# xmcd
#
# Track frame offsets:
#	183
#	14533
#	29078
#	47410
#	64220
#	77133
#	103658
#	129515
#	160718
#	182923
#	203063
#	217245
#	235888
#	254710
#	282125
#	297138
#
# Disc length: 4200 seconds
#
# Revision: 1
# Processed by: cddbd v1.5.2PL0 Copyright (c) Steve Scherf et al.
# Submitted via: audiograbber 1.83.01
#
DISCID=f1106610
DTITLE=Big Sugar - BIG SUGAR - El Seven Nite Club Feat Big Sugar
DYEAR=1993
DGENRE=Blues Rock
TTITLE0=Big Sugar - Shot In The Dark
TTITLE1=Big Sugar feat. Big Rude Jake - Wish I Could Shimmy Like My Sister Kate
TTITLE2=Big Sugar feat.  Tyler Stewart - Early In The Morning
TTITLE3=Big Sugar feat.  Lee Aaron - In The Dark
TTITLE4=Big Sugar feat.  Carl Strygg - Day Dream
TTITLE5=Big Sugar feat. Molly Johnson - How Long, How Long Blues
TTITLE6=Big Sugar feat.  Chantal Aston - Fine And Mellow
TTITLE7=Big Sugar feat. The Bitch Diva - Boulevard Of Broken Dreams
TTITLE8=Big Sugar feat. Kim Doolittle - Empty Bed Blues
TTITLE9=Big Sugar feat. Rebecca Jenkins - I Gave My Love A Cherry
TTITLE10=Big Sugar feat. Julian Finkel - When I Get Low I Get High
TTITLE11=Big Sugar feat. Mitch Krol - House Of The Rising Sun
TTITLE12=Big Sugar feat. Scott B. - Sitting On Top Of The World
TTITLE13=Big Sugar feat. Molly Johnson - Round Midnight
TTITLE14=Big Sugar feat. The Katherine - If You Have To Lie
TTITLE15=Big Sugar feat. Gordie Johnson - Walk You Home
EXTD=
EXTT0=
EXTT1=
EXTT2=
EXTT3=
EXTT4=
EXTT5=
EXTT6=
EXTT7=
EXTT8=
EXTT9=
EXTT10=
EXTT11=
EXTT12=
EXTT13=
EXTT14=
EXTT15=
PLAYORDER=
